<svg xmlns="http://www.w3.org/2000/svg" width="24" height="25" fill="none"><g fill="#fff" fill-rule="evenodd" clip-rule="evenodd"><path d="M0 12.235c0-6.627 5.373-12 12-12s12 5.373 12 12c0 6.628-5.373 12-12 12s-12-5.372-12-12Z" opacity=".1"/><path d="M18.4 12.227a6.405 6.405 0 0 1-.504 2.487 6.449 6.449 0 0 1-2.318 2.811c-.342.23-.708.429-1.087.59a6.425 6.425 0 0 1-6.07-.59 6.452 6.452 0 0 1-2.318-2.811 6.372 6.372 0 0 1 0-4.975 6.381 6.381 0 0 1 1.371-2.032 6.505 6.505 0 0 1 2.034-1.37 6.45 6.45 0 0 1 4.983 0 6.422 6.422 0 0 1 3.778 4.603c.087.42.131.853.131 1.287ZM9.668 7.29a5.466 5.466 0 0 0-3.017 3.811c.144.001 2.422.03 5.046-.666a32.847 32.847 0 0 0-2.03-3.145Zm2.482 3.985c-2.814.842-5.515.781-5.612.777-.001.06-.004.116-.004.175 0 1.402.53 2.68 1.4 3.646-.001-.002 1.494-2.652 4.444-3.605a5.23 5.23 0 0 1 .215-.065c-.137-.31-.287-.621-.443-.928Zm3.46-3.145A5.443 5.443 0 0 0 12 6.77c-.444 0-.875.053-1.288.152.082.11 1.108 1.47 2.043 3.184 2.062-.772 2.84-1.956 2.854-1.976Zm-2.644 4.977-.036.012c-3.225 1.123-4.278 3.385-4.29 3.41a5.459 5.459 0 0 0 5.493.723 22.689 22.689 0 0 0-1.167-4.145Zm2.088 3.646a5.46 5.46 0 0 0 2.342-3.661 7.94 7.94 0 0 0-3.406-.238 23.593 23.593 0 0 1 1.064 3.899Zm-1.878-5.834a17.159 17.159 0 0 1 .481 1.074c1.878-.236 3.727.161 3.806.177a5.426 5.426 0 0 0-1.242-3.41c-.01.014-.887 1.279-3.045 2.159Z"/></g></svg>